<svg width="31" height="30" viewBox="0 0 31 30" fill="none" xmlns="http://www.w3.org/2000/svg">
<g clip-path="url(#clip0)">
<path d="M23.4585 30C21.6421 30 20.0942 29.3604 18.8149 28.0811C17.5356 26.8018 16.896 25.2539 16.896 23.4375C16.896 21.6211 17.5356 20.0732 18.8149 18.7939C20.0942 17.5146 21.6421 16.875 23.4585 16.875C25.2749 16.875 26.8228 17.5146 28.1021 18.7939C29.3813 20.0732 30.021 21.6211 30.021 23.4375C30.021 25.2539 29.3813 26.8018 28.1021 28.0811C26.8228 29.3604 25.2749 30 23.4585 30ZM27.2085 22.5H24.396V19.6875C24.396 19.4336 24.3032 19.2139 24.1177 19.0283C23.9321 18.8428 23.7124 18.75 23.4585 18.75C23.2046 18.75 22.9849 18.8428 22.7993 19.0283C22.6138 19.2139 22.521 19.4336 22.521 19.6875V23.4375C22.521 23.6719 22.5942 23.8721 22.7407 24.0381C22.8872 24.2041 23.0679 24.3066 23.2827 24.3457C23.3218 24.3652 23.3804 24.375 23.4585 24.375H27.2085C27.4624 24.375 27.6821 24.2822 27.8677 24.0967C28.0532 23.9111 28.146 23.6914 28.146 23.4375C28.146 23.1836 28.0532 22.9639 27.8677 22.7783C27.6821 22.5928 27.4624 22.5 27.2085 22.5ZM14.0835 24.375H8.4585C8.20459 24.375 7.98486 24.2822 7.79932 24.0967C7.61377 23.9111 7.521 23.6914 7.521 23.4375C7.521 23.1836 7.61377 22.9639 7.79932 22.7783C7.98486 22.5928 8.20459 22.5 8.4585 22.5H14.0835C14.3374 22.5 14.5571 22.5928 14.7427 22.7783C14.9282 22.9639 15.021 23.1836 15.021 23.4375C15.021 23.6914 14.9282 23.9111 14.7427 24.0967C14.5571 24.2822 14.3374 24.375 14.0835 24.375ZM8.4585 18.75H14.0835C14.3374 18.75 14.5571 18.8428 14.7427 19.0283C14.9282 19.2139 15.021 19.4336 15.021 19.6875C15.021 19.9414 14.9282 20.1611 14.7427 20.3467C14.5571 20.5322 14.3374 20.625 14.0835 20.625H8.4585C8.20459 20.625 7.98486 20.5322 7.79932 20.3467C7.61377 20.1611 7.521 19.9414 7.521 19.6875C7.521 19.4336 7.61377 19.2139 7.79932 19.0283C7.98486 18.8428 8.20459 18.75 8.4585 18.75ZM17.8335 16.875H8.4585C8.20459 16.875 7.98486 16.7822 7.79932 16.5967C7.61377 16.4111 7.521 16.1914 7.521 15.9375C7.521 15.6836 7.61377 15.4639 7.79932 15.2783C7.98486 15.0928 8.20459 15 8.4585 15H17.8335C18.0874 15 18.3071 15.0928 18.4927 15.2783C18.6782 15.4639 18.771 15.6836 18.771 15.9375C18.771 16.1914 18.6782 16.4111 18.4927 16.5967C18.3071 16.7822 18.0874 16.875 17.8335 16.875ZM21.5835 13.125H8.4585C8.20459 13.125 7.98486 13.0322 7.79932 12.8467C7.61377 12.6611 7.521 12.4414 7.521 12.1875C7.521 11.9336 7.61377 11.7139 7.79932 11.5283C7.98486 11.3428 8.20459 11.25 8.4585 11.25H21.5835C21.8374 11.25 22.0571 11.3428 22.2427 11.5283C22.4282 11.7139 22.521 11.9336 22.521 12.1875C22.521 12.4414 22.4282 12.6611 22.2427 12.8467C22.0571 13.0322 21.8374 13.125 21.5835 13.125ZM21.5835 5.625H8.4585C8.20459 5.625 7.98486 5.53223 7.79932 5.34668C7.61377 5.16113 7.521 4.94141 7.521 4.6875C7.521 4.43359 7.61377 4.21387 7.79932 4.02832C7.98486 3.84277 8.20459 3.75 8.4585 3.75H21.5835C21.8374 3.75 22.0571 3.84277 22.2427 4.02832C22.4282 4.21387 22.521 4.43359 22.521 4.6875C22.521 4.94141 22.4282 5.16113 22.2427 5.34668C22.0571 5.53223 21.8374 5.625 21.5835 5.625ZM21.5835 9.375H8.4585C8.20459 9.375 7.98486 9.28223 7.79932 9.09668C7.61377 8.91113 7.521 8.69141 7.521 8.4375C7.521 8.18359 7.61377 7.96387 7.79932 7.77832C7.98486 7.59277 8.20459 7.5 8.4585 7.5H21.5835C21.8374 7.5 22.0571 7.59277 22.2427 7.77832C22.4282 7.96387 22.521 8.18359 22.521 8.4375C22.521 8.69141 22.4282 8.91113 22.2427 9.09668C22.0571 9.28223 21.8374 9.375 21.5835 9.375ZM24.396 2.8125C24.396 2.55859 24.3032 2.33887 24.1177 2.15332C23.9321 1.96777 23.7124 1.875 23.4585 1.875H4.7085C4.45459 1.875 4.23486 1.96777 4.04932 2.15332C3.86377 2.33887 3.771 2.55859 3.771 2.8125V3.75C4.29834 3.75 4.74268 3.93066 5.104 4.29199C5.46533 4.65332 5.646 5.09766 5.646 5.625C5.646 6.15234 5.46533 6.59668 5.104 6.95801C4.74268 7.31934 4.29834 7.5 3.771 7.5V9.375C4.29834 9.375 4.74268 9.55566 5.104 9.91699C5.46533 10.2783 5.646 10.7227 5.646 11.25C5.646 11.7773 5.46533 12.2217 5.104 12.583C4.74268 12.9443 4.29834 13.125 3.771 13.125V15C4.29834 15 4.74268 15.1807 5.104 15.542C5.46533 15.9033 5.646 16.3428 5.646 16.8604C5.646 17.3779 5.46533 17.8223 5.104 18.1934C4.74268 18.5645 4.29834 18.75 3.771 18.75V20.625C4.29834 20.625 4.74268 20.8057 5.104 21.167C5.46533 21.5283 5.646 21.9678 5.646 22.4854C5.646 23.0029 5.46533 23.4473 5.104 23.8184C4.74268 24.1895 4.29834 24.375 3.771 24.375V25.3125C3.771 25.5664 3.86377 25.7861 4.04932 25.9717C4.23486 26.1572 4.45459 26.25 4.7085 26.25H16.896V28.125H3.771C3.26318 28.125 2.82373 27.9395 2.45264 27.5684C2.08154 27.1973 1.896 26.7578 1.896 26.25V24.375C1.38818 24.375 0.94873 24.1895 0.577637 23.8184C0.206543 23.4473 0.0209961 23.0029 0.0209961 22.4854C0.0209961 21.9678 0.206543 21.5283 0.577637 21.167C0.94873 20.8057 1.38818 20.625 1.896 20.625V18.75C1.38818 18.75 0.94873 18.5645 0.577637 18.1934C0.206543 17.8223 0.0209961 17.3779 0.0209961 16.8604C0.0209961 16.3428 0.206543 15.9033 0.577637 15.542C0.94873 15.1807 1.38818 15 1.896 15V13.125C1.38818 13.125 0.94873 12.9443 0.577637 12.583C0.206543 12.2217 0.0209961 11.7773 0.0209961 11.25C0.0209961 10.7227 0.206543 10.2783 0.577637 9.91699C0.94873 9.55566 1.38818 9.375 1.896 9.375V7.5C1.38818 7.5 0.94873 7.31934 0.577637 6.95801C0.206543 6.59668 0.0209961 6.15234 0.0209961 5.625C0.0209961 5.09766 0.206543 4.65332 0.577637 4.29199C0.94873 3.93066 1.38818 3.75 1.896 3.75V1.875C1.896 1.34766 2.08154 0.90332 2.45264 0.541992C2.82373 0.180664 3.26318 0 3.771 0H24.396C24.9038 0 25.3433 0.180664 25.7144 0.541992C26.0854 0.90332 26.271 1.34766 26.271 1.875V15H24.396V2.8125Z" fill="black"/>
</g>
<defs>
<clipPath id="clip0">
<rect width="30.03" height="30" fill="white"/>
</clipPath>
</defs>
</svg>
