<svg width="30" height="30" viewBox="0 0 20 21" fill="none" xmlns="http://www.w3.org/2000/svg">
<path fill-rule="evenodd" clip-rule="evenodd" d="M12.6826 6.70714C12.7407 6.64933 12.8097 6.60347 12.8856 6.57218C12.9615 6.54089 13.0429 6.52478 13.1251 6.52478C13.2073 6.52478 13.2888 6.54089 13.3647 6.57218C13.4406 6.60347 13.5096 6.64933 13.5676 6.70714L17.3176 10.4314C17.3758 10.489 17.422 10.5575 17.4535 10.6329C17.485 10.7084 17.5013 10.7892 17.5013 10.8708C17.5013 10.9525 17.485 11.0333 17.4535 11.1087C17.422 11.1841 17.3758 11.2526 17.3176 11.3103L13.5676 15.0345C13.4503 15.1511 13.2911 15.2166 13.1251 15.2166C12.9592 15.2166 12.8 15.1511 12.6826 15.0345C12.5653 14.918 12.4994 14.7599 12.4994 14.5951C12.4994 14.4303 12.5653 14.2722 12.6826 14.1556L15.9914 10.8708L12.6826 7.58606C12.6244 7.5284 12.5783 7.4599 12.5468 7.38449C12.5152 7.30908 12.499 7.22824 12.499 7.1466C12.499 7.06495 12.5152 6.98411 12.5468 6.9087C12.5783 6.83329 12.6244 6.76479 12.6826 6.70714Z" fill="#F8CA00"/>
<path fill-rule="evenodd" clip-rule="evenodd" d="M2.5 10.8708C2.5 10.7062 2.56585 10.5483 2.68306 10.4319C2.80027 10.3155 2.95924 10.2501 3.125 10.2501H16.25C16.4158 10.2501 16.5747 10.3155 16.6919 10.4319C16.8092 10.5483 16.875 10.7062 16.875 10.8708C16.875 11.0355 16.8092 11.1933 16.6919 11.3097C16.5747 11.4261 16.4158 11.4915 16.25 11.4915H3.125C2.95924 11.4915 2.80027 11.4261 2.68306 11.3097C2.56585 11.1933 2.5 11.0355 2.5 10.8708Z" fill="#F8CA00"/>
</svg>
