<svg width="20" height="21" viewBox="0 0 20 21" fill="none"
    xmlns="http://www.w3.org/2000/svg">
    <path fill-rule="evenodd" clip-rule="evenodd"
        d="M10.0012 13.5136L14.9331 18.5284C15.4278 19.0354 15.7498 19.0406 16.2536 18.5284L17.2431 17.5221C17.7278 17.0293 17.7607 16.7058 17.2431 16.1794L12.0217 10.8709L17.2436 5.56239C17.7326 5.06346 17.7421 4.72674 17.2436 4.2193L16.254 3.2134C15.7407 2.69129 15.4236 2.71541 14.9336 3.2134L10.0012 8.22824L5.06928 3.21387C4.57928 2.71589 4.26213 2.69177 3.7488 3.21387L2.75928 4.21977C2.26023 4.72721 2.26928 5.06393 2.75928 5.56286L7.9807 10.8709L2.75928 16.1794C2.24166 16.7058 2.26928 17.0293 2.75928 17.5221L3.74832 18.5284C4.24785 19.0406 4.56975 19.0354 5.0688 18.5284L10.0012 13.5136Z"
        fill="#E97F02" />
</svg>