<svg width="15" height="15" viewBox="0 0 15 15" fill="none"
    xmlns="http://www.w3.org/2000/svg">
    <path fill-rule="evenodd" clip-rule="evenodd"
        d="M7.5 14.0625C9.24048 14.0625 10.9097 13.3711 12.1404 12.1404C13.3711 10.9097 14.0625 9.24048 14.0625 7.5C14.0625 5.75952 13.3711 4.09032 12.1404 2.85961C10.9097 1.6289 9.24048 0.9375 7.5 0.9375C5.75952 0.9375 4.09032 1.6289 2.85961 2.85961C1.6289 4.09032 0.9375 5.75952 0.9375 7.5C0.9375 9.24048 1.6289 10.9097 2.85961 12.1404C4.09032 13.3711 5.75952 14.0625 7.5 14.0625ZM15 7.5C15 9.48912 14.2098 11.3968 12.8033 12.8033C11.3968 14.2098 9.48912 15 7.5 15C5.51088 15 3.60322 14.2098 2.1967 12.8033C0.790176 11.3968 0 9.48912 0 7.5C0 5.51088 0.790176 3.60322 2.1967 2.1967C3.60322 0.790176 5.51088 0 7.5 0C9.48912 0 11.3968 0.790176 12.8033 2.1967C14.2098 3.60322 15 5.51088 15 7.5Z"
        fill="black" />
    <path fill-rule="evenodd" clip-rule="evenodd"
        d="M7.03125 2.8125C7.15557 2.8125 7.2748 2.86189 7.36271 2.94979C7.45061 3.0377 7.5 3.15693 7.5 3.28125V8.16563L10.545 9.90562C10.6498 9.96885 10.7257 10.0706 10.7565 10.189C10.7873 10.3075 10.7706 10.4333 10.7099 10.5396C10.6491 10.6458 10.5492 10.7241 10.4315 10.7577C10.3139 10.7913 10.1877 10.7776 10.08 10.7194L6.79875 8.84438C6.72701 8.80339 6.66737 8.74418 6.62588 8.67273C6.58439 8.60127 6.56253 8.52012 6.5625 8.4375V3.28125C6.5625 3.15693 6.61189 3.0377 6.69979 2.94979C6.7877 2.86189 6.90693 2.8125 7.03125 2.8125Z"
        fill="black" />
</svg>