<svg width="40" height="37" viewBox="0 0 40 37" fill="none" xmlns="http://www.w3.org/2000/svg">
<path d="M31 7.41016H37V35.0122H5V7.41016H11V5.57002C11 4.81556 11.3 4.17152 11.88 3.61947C12.46 3.08584 13.18 2.80981 14 2.80981C14.82 2.80981 15.54 3.08584 16.12 3.61947C16.7 4.17152 17 4.81556 17 5.57002V7.41016H25V5.57002C25 4.81556 25.3 4.17152 25.88 3.61947C26.46 3.08584 27.18 2.80981 28 2.80981C28.82 2.80981 29.54 3.08584 30.12 3.61947C30.7 4.17152 31 4.81556 31 5.57002V7.41016ZM13 5.57002V10.1704C12.9976 10.2918 13.0218 10.4125 13.0711 10.5251C13.1205 10.6377 13.1941 10.7401 13.2875 10.826C13.3808 10.9118 13.492 10.9795 13.6144 11.025C13.7369 11.0704 13.868 11.0927 14 11.0904C14.132 11.0927 14.2631 11.0704 14.3856 11.025C14.508 10.9795 14.6192 10.9118 14.7125 10.826C14.8059 10.7401 14.8795 10.6377 14.9289 10.5251C14.9782 10.4125 15.0024 10.2918 15 10.1704V5.57002C15 5.3124 14.9 5.09158 14.7 4.92597C14.52 4.74196 14.28 4.64995 14 4.64995C13.72 4.64995 13.48 4.74196 13.3 4.92597C13.1 5.09158 13 5.3124 13 5.57002ZM27 5.57002V10.1704C27 10.428 27.1 10.6488 27.28 10.8328C27.48 10.9984 27.72 11.0904 28 11.0904C28.28 11.0904 28.52 10.9984 28.72 10.8328C28.9 10.6488 29 10.428 29 10.1704V5.57002C29.0024 5.44858 28.9782 5.32793 28.9289 5.21528C28.8795 5.10264 28.8059 5.00032 28.7125 4.91443C28.6192 4.82854 28.508 4.76085 28.3856 4.71541C28.2631 4.66997 28.132 4.6477 28 4.64995C27.868 4.6477 27.7369 4.66997 27.6144 4.71541C27.492 4.76085 27.3808 4.82854 27.2875 4.91443C27.1941 5.00032 27.1205 5.10264 27.0711 5.21528C27.0218 5.32793 26.9976 5.44858 27 5.57002ZM35 33.1721V14.7707H7V33.1721H35ZM15 16.6108V20.2911H11V16.6108H15ZM19 16.6108H23V20.2911H19V16.6108ZM27 20.2911V16.6108H31V20.2911H27ZM15 22.1313V25.8115H11V22.1313H15ZM19 22.1313H23V25.8115H19V22.1313ZM27 25.8115V22.1313H31V25.8115H27ZM15 27.6517V31.3319H11V27.6517H15ZM23 31.3319H19V27.6517H23V31.3319ZM31 31.3319H27V27.6517H31V31.3319Z" fill="#111111"/>
</svg>
