<svg width="15" height="15" viewBox="0 0 15 15" fill="none"
    xmlns="http://www.w3.org/2000/svg">
    <path
        d="M13.0938 10.5938C12.1562 8.8125 11.2187 9.09375 10.1875 9C10.2812 9.28125 10.2812 9.5625 10.2812 9.9375C11.7812 10.3125 12.1562 12.0938 12.1562 13.125V14.0625H10.2812V13.125H11.2188C11.2188 13.125 11.2188 10.7812 9.8125 10.7812C8.40625 10.7812 8.40625 13.0312 8.40625 13.125H9.34375V14.0625H7.46875V13.125C7.46875 12.0938 7.84375 10.2188 9.34375 9.9375C9.34375 9.375 9.25 8.90625 9.15625 8.71875C8.96875 8.625 8.78125 8.4375 8.78125 8.15625C8.78125 7.59375 9.53125 7.78125 10.0938 6.75C10.0938 6.75 10.9375 4.59375 10.6562 2.71875H9.71875C9.71875 2.53125 9.8125 2.4375 9.8125 2.25C9.8125 2.0625 9.8125 1.96875 9.71875 1.78125H10.4687C10.1875 0.84375 9.25 0 7.46875 0C5.6875 0 4.75 0.84375 4.375 1.875H5.125C5.125 2.0625 5.03125 2.15625 5.03125 2.34375C5.03125 2.53125 5.03125 2.625 5.125 2.8125H4.1875C4 4.6875 4.75 6.84375 4.75 6.84375C5.3125 7.78125 6.0625 7.59375 6.0625 8.25C6.0625 8.71875 5.59375 8.90625 5.03125 9C4.84375 9.1875 4.65625 9.5625 4.65625 10.3125V11.4375C5.21875 11.625 5.59375 12.1875 5.59375 12.75C5.59375 13.4062 4.9375 14.0625 4.1875 14.0625C3.4375 14.0625 2.78125 13.4062 2.78125 12.6562C2.78125 12 3.15625 11.5312 3.71875 11.3438V10.2188C3.71875 9.75 3.8125 9.375 3.90625 9C3.25 9.09375 2.5 9.375 1.84375 10.5938C1.28125 11.625 1 15 1 15H13.8438C13.9375 15 13.6562 11.625 13.0938 10.5938ZM6.0625 2.34375C6.0625 1.59375 6.71875 0.9375 7.46875 0.9375C8.21875 0.9375 8.875 1.59375 8.875 2.34375C8.875 3.09375 8.21875 3.75 7.46875 3.75C6.71875 3.75 6.0625 3.09375 6.0625 2.34375Z"
        fill="black" />
    <path
        d="M4.6875 12.6562C4.6875 12.7806 4.63811 12.8998 4.55021 12.9877C4.4623 13.0756 4.34307 13.125 4.21875 13.125C4.09443 13.125 3.9752 13.0756 3.88729 12.9877C3.79939 12.8998 3.75 12.7806 3.75 12.6562C3.75 12.5319 3.79939 12.4127 3.88729 12.3248C3.9752 12.2369 4.09443 12.1875 4.21875 12.1875C4.34307 12.1875 4.4623 12.2369 4.55021 12.3248C4.63811 12.4127 4.6875 12.5319 4.6875 12.6562Z"
        fill="black" />
</svg>