<svg width="18" height="21" viewBox="0 0 18 21" fill="none"
    xmlns="http://www.w3.org/2000/svg">
    <g clip-path="url(#clip0)">
        <path
            d="M17.4296 11.4295C17.1874 10.6924 16.3788 10.3006 15.6327 10.5411L13.8592 11.1269L12.6757 7.63545L14.4491 7.04966C15.1952 6.80913 15.5858 6.00997 15.3475 5.269C15.1053 4.53191 14.2967 4.14009 13.5507 4.38061L11.7772 4.96641L11.1639 3.14308C10.9217 2.40599 10.1132 2.01417 9.36706 2.25469C8.62096 2.49521 8.23034 3.29438 8.46862 4.03535L9.0819 5.85867L5.43346 7.06905L4.82018 5.24572C4.578 4.50863 3.7694 4.11681 3.02331 4.35734C2.27721 4.59786 1.88659 5.39702 2.12487 6.13799L2.73815 7.96132L0.96862 8.54323C0.222527 8.78376 -0.168098 9.58292 0.070183 10.3239C0.265495 10.8864 0.816277 11.2549 1.38268 11.2782C1.64831 11.317 1.85143 11.2162 3.63659 10.6265L4.82018 14.118L3.04675 14.7038C2.30456 14.9443 1.91003 15.7473 2.14831 16.4844C2.34362 17.0469 2.8944 17.4155 3.46081 17.4387C3.72643 17.4775 3.92956 17.3767 5.71471 16.787L6.328 18.6103C6.55846 19.266 7.29284 19.7354 8.12487 19.4987C8.87096 19.2582 9.26159 18.459 9.02331 17.7181L8.41003 15.8947L12.0663 14.6805L12.6796 16.5038C12.91 17.1594 13.6444 17.6288 14.4764 17.3922C15.2225 17.1517 15.6132 16.3525 15.3749 15.6115L14.7616 13.7882L16.535 13.2024C17.2772 12.9697 17.6717 12.1666 17.4296 11.4295ZM7.50378 13.2606L6.32018 9.76137L9.97253 8.54711L11.1561 12.0464L7.50378 13.2606Z"
            fill="#333333" />
    </g>
    <defs>
        <clipPath id="clip0">
            <rect width="17.5" height="19.8626" fill="white"
                transform="translate(0 0.939575)" />
        </clipPath>
    </defs>
</svg>