<svg width="40" height="38" viewBox="0 0 40 38" fill="none" xmlns="http://www.w3.org/2000/svg">
<g clip-path="url(#clip0)">
<path d="M36.25 26.8561C33.75 22.4857 31.25 23.1758 28.5 22.9458C28.75 23.6358 28.75 24.3259 28.75 25.246C32.75 26.166 33.75 30.5363 33.75 33.0665V35.3667H28.75V33.0665H31.25C31.25 33.0665 31.25 27.3161 27.5 27.3161C23.75 27.3161 23.75 32.8365 23.75 33.0665H26.25V35.3667H21.25V33.0665C21.25 30.5363 22.25 25.936 26.25 25.246C26.25 23.8659 26 22.7158 25.75 22.2557C25.25 22.0257 24.75 21.5657 24.75 20.8756C24.75 19.4955 26.75 19.9556 28.25 17.4254C28.25 17.4254 30.5 12.135 29.75 7.53463H27.25C27.25 7.0746 27.5 6.84458 27.5 6.38455C27.5 5.92451 27.5 5.6945 27.25 5.23446H29.25C28.5 2.93429 26 0.864136 21.25 0.864136C16.5 0.864136 14 2.93429 13 5.46448H15C15 5.92451 14.75 6.15453 14.75 6.61456C14.75 7.0746 14.75 7.30462 15 7.76465H12.5C12 12.365 14 17.6554 14 17.6554C15.5 19.9556 17.5 19.4955 17.5 21.1056C17.5 22.2557 16.25 22.7158 14.75 22.9458C14.25 23.4058 13.75 24.3259 13.75 26.166V28.9262C15.25 29.3863 16.25 30.7664 16.25 32.1465C16.25 33.7566 14.5 35.3667 12.5 35.3667C10.5 35.3667 8.75 33.7566 8.75 31.9164C8.75 30.3063 9.75 29.1562 11.25 28.6962V25.936C11.25 24.7859 11.5 23.8659 11.75 22.9458C10 23.1758 8 23.8659 6.25 26.8561C4.75 29.3863 4 37.6669 4 37.6669H38.25C38.5 37.6669 37.75 29.3863 36.25 26.8561ZM17.5 6.61456C17.5 4.77443 19.25 3.16431 21.25 3.16431C23.25 3.16431 25 4.77443 25 6.61456C25 8.4547 23.25 10.0648 21.25 10.0648C19.25 10.0648 17.5 8.4547 17.5 6.61456Z" fill="#111111"/>
<path d="M22.5 31.9164C22.5 32.2215 22.3683 32.514 22.1339 32.7297C21.8995 32.9454 21.5815 33.0665 21.25 33.0665C20.9185 33.0665 20.6005 32.9454 20.3661 32.7297C20.1317 32.514 20 32.2215 20 31.9164C20 31.6114 20.1317 31.3189 20.3661 31.1032C20.6005 30.8875 20.9185 30.7664 21.25 30.7664C21.5815 30.7664 21.8995 30.8875 22.1339 31.1032C22.3683 31.3189 22.5 31.6114 22.5 31.9164Z" fill="#111111"/>
</g>
<defs>
<clipPath id="clip0">
<rect width="40" height="36.8027" fill="white" transform="translate(0 0.864136)"/>
</clipPath>
</defs>
</svg>
