<svg width="20" height="21" viewBox="0 0 20 21" fill="none"
    xmlns="http://www.w3.org/2000/svg">
    <path
        d="M5.8335 2.59485V4.25007H6.66683V15.8366C6.66683 16.7146 7.01802 17.5566 7.64314 18.1774C8.26826 18.7983 9.11611 19.147 10.0002 19.147C10.8842 19.147 11.7321 18.7983 12.3572 18.1774C12.9823 17.5566 13.3335 16.7146 13.3335 15.8366V4.25007H14.1668V2.59485H5.8335ZM9.16683 14.1814C8.66683 14.1814 8.3335 13.8503 8.3335 13.3538C8.3335 12.8572 8.66683 12.5262 9.16683 12.5262C9.66683 12.5262 10.0002 12.8572 10.0002 13.3538C10.0002 13.8503 9.66683 14.1814 9.16683 14.1814ZM10.8335 10.8709C10.3335 10.8709 10.0002 10.5399 10.0002 10.0433C10.0002 9.54677 10.3335 9.21573 10.8335 9.21573C11.3335 9.21573 11.6668 9.54677 11.6668 10.0433C11.6668 10.5399 11.3335 10.8709 10.8335 10.8709ZM11.6668 6.7329H8.3335V4.25007H11.6668V6.7329Z"
        fill="#333333" />
</svg>