<svg width="15" height="15" viewBox="0 0 15 15" fill="none"
    xmlns="http://www.w3.org/2000/svg">
    <path
        d="M12.8772 3.89999H11.4V2.33219C11.4 1.21139 10.5156 0.299988 9.39185 0.299988H5.60855C4.48415 0.299988 3.60005 1.21139 3.60005 2.33219V3.89999H2.12255C1.11575 3.89999 0.300049 4.67729 0.300049 5.68109V12.5832C0.300049 13.5867 1.11575 14.4 2.12255 14.4H12.8772C13.8837 14.4 14.7 13.5867 14.7 12.5829V5.68109C14.7 4.67729 13.8837 3.89999 12.8772 3.89999ZM4.80005 2.33219C4.80005 1.91249 5.18765 1.49999 5.60855 1.49999H9.39185C9.81155 1.49999 10.2 1.91249 10.2 2.33219V3.89999H4.80005V2.33219ZM10.8 10.5H8.70005V12.6H6.30005V10.5H4.20005V8.09999H6.30005V5.99999H8.70005V8.09999H10.8V10.5Z"
        fill="black" />
</svg>